<?xml version="1.0" encoding="utf-8"?>
<!-- Generator: Adobe Illustrator 25.0.0, SVG Export Plug-In . SVG Version: 6.00 Build 0)  -->
<svg version="1.1" id="Layer_1" xmlns="http://www.w3.org/2000/svg" xmlns:xlink="http://www.w3.org/1999/xlink" x="0px" y="0px"
	 viewBox="0 0 149 52" style="enable-background:new 0 0 149 52;" xml:space="preserve">
<path d="M65.8,51.6h-4.4c-0.4,0-0.8-0.3-0.8-0.8V1.9c0-0.4,0.4-0.8,0.8-0.8h4.4c0.4,0,0.8,0.4,0.8,0.8v49
	C66.5,51.3,66.2,51.6,65.8,51.6z M13.3,23c-0.1-0.1-0.2-0.3-0.2-0.5V2.1c0-0.2,0.1-0.4,0.2-0.6c0.2-0.2,0.3-0.2,0.6-0.2h8.3
	c3.1,0,5.5,0.7,7.2,2.2C31.1,5,32,7.1,32,9.9c0,0.6,0,1.4,0,2.4s0,1.8,0,2.4c-0.2,5.7-3.5,8.6-9.8,8.6h-8.5
	C13.6,23.2,13.4,23.1,13.3,23z M22.1,18.6c1.3,0,2.3-0.3,2.9-0.9s1-1.6,1-3c0.1-1.6,0.1-3.1,0-4.7c0-1.3-0.4-2.3-1.1-3s-1.7-1-3-1
	h-3v12.5L22.1,18.6L22.1,18.6L22.1,18.6z M37.7,21.4C36,20,35.1,17.9,35,15.1c0-0.6,0-1.5,0-2.7c0-1.3,0-2.2,0-2.8
	c0.1-2.7,1-4.8,2.8-6.3c1.7-1.5,4.1-2.2,7-2.2c1.9,0,3.5,0.3,5,0.9s2.7,1.5,3.5,2.6c0.9,1.2,1.3,2.5,1.3,4.1c0,0.4-0.3,0.7-0.6,0.7
	l0,0h-4.5c-0.3,0-0.5-0.1-0.6-0.2c-0.1-0.1-0.3-0.3-0.4-0.6c-0.3-1-0.7-1.7-1.3-2.1s-1.4-0.6-2.4-0.6c-2.4,0-3.6,1.3-3.7,4
	c0,0.6,0,1.4,0,2.6s0,2,0,2.7c0.1,2.6,1.3,3.9,3.7,3.9c1,0,1.8-0.2,2.4-0.6c0.6-0.4,1.1-1.1,1.3-2.1c0.1-0.3,0.2-0.5,0.4-0.6
	s0.4-0.2,0.7-0.2h4.5c0.4,0,0.7,0.3,0.7,0.6l0,0c0,1.6-0.5,2.9-1.3,4.1c-0.9,1.1-2,2-3.5,2.6s-3.1,0.9-5,0.9
	C41.8,23.5,39.4,22.8,37.7,21.4z M15.6,49.5C13.9,48,13,45.8,13,42.9v-13c0-0.2,0.1-0.4,0.2-0.6c0.2-0.2,0.4-0.2,0.6-0.2h4.4
	c0.2,0,0.4,0.1,0.6,0.2c0.2,0.2,0.2,0.4,0.2,0.6v12.9c0,1.3,0.3,2.3,0.9,3s1.5,1,2.7,1s2.1-0.3,2.7-1s0.9-1.7,0.9-2.9v-13
	c0-0.2,0.1-0.4,0.2-0.6c0.2-0.2,0.4-0.2,0.6-0.2h4.3c0.2,0,0.4,0.1,0.6,0.2c0.2,0.2,0.2,0.4,0.2,0.6v13c0,2.9-0.9,5.1-2.6,6.6
	s-4,2.2-7.1,2.2C19.6,51.6,17.3,50.9,15.6,49.5z M39.6,50.8c-1.4-0.6-2.5-1.4-3.3-2.4c-0.7-1-1.2-2-1.2-3.2c0-0.4,0.3-0.7,0.6-0.7
	l0,0H40c0.3,0,0.4,0,0.6,0.1c0.2,0.1,0.3,0.2,0.5,0.4c0.3,0.5,0.7,0.9,1.3,1.2s1.4,0.5,2.3,0.5c1.2,0,2-0.2,2.7-0.5
	c0.6-0.4,0.9-0.8,0.9-1.4c0-0.4-0.2-0.8-0.5-1.1s-0.8-0.5-1.5-0.8c-0.7-0.2-1.7-0.5-3-0.7c-2.6-0.5-4.5-1.3-5.8-2.3
	c-1.3-1.1-1.9-2.5-1.9-4.4c0-1.3,0.4-2.5,1.1-3.5s1.8-1.8,3.1-2.4s2.9-0.9,4.7-0.9c1.9,0,3.5,0.3,4.9,1c1.4,0.6,2.4,1.4,3.2,2.4
	c0.7,1,1.1,1.9,1.2,2.8c0,0.4-0.3,0.7-0.6,0.7l0,0h-4.5c-0.5,0-0.8-0.2-1.1-0.6c-0.1-0.4-0.4-0.8-1-1.1c-0.5-0.3-1.2-0.4-2-0.4
	c-0.9,0-1.6,0.2-2.1,0.5s-0.7,0.8-0.7,1.4c0,0.6,0.3,1.1,1,1.4c0.6,0.4,1.8,0.7,3.6,1.1c2,0.4,3.6,0.8,4.8,1.3s2.1,1.2,2.6,2.1
	c0.6,0.9,0.8,1.9,0.8,3.3c0,1.4-0.4,2.7-1.2,3.7c-0.8,1.1-2,1.9-3.4,2.4c-1.5,0.6-3.1,0.8-5,0.8C42.8,51.6,41.1,51.4,39.6,50.8
	L39.6,50.8z M73.1,50.8c-0.4-0.4-0.5-0.8-0.5-1.2v-5.4c0-1.4,0.6-2.7,1.8-3.6l6.7-6.5c4.6-3.5,8-6.1,10.4-8c2.3-1.9,4.1-3.6,5.4-5.2
	c1.2-1.6,1.8-3,1.8-4.4c0-3.5-1.8-5.3-5.4-5.3c-1.9,0-3.3,0.6-4.3,1.7s-1.7,2.5-2,4.2c-0.3,1.1-1.1,1.7-2.5,1.7H75
	c-0.5,0-0.8-0.2-1.1-0.5c-0.3-0.3-0.5-0.7-0.5-1.1c0.1-3.2,1-6,2.6-8.6C77.7,6,80,4,83,2.5s6.4-2.3,10.3-2.3c4,0,7.5,0.6,10.4,1.9
	s5.2,3.1,6.7,5.5s2.3,5.1,2.3,8.2c0,3.4-1.1,6.6-3.2,9.4s-5.4,5.8-9.8,9.1l-6,6H112c0.5,0,1,0.2,1.3,0.5s0.5,0.8,0.5,1.3v7.7
	c0,0.5-0.2,0.9-0.5,1.2c-0.4,0.4-0.8,0.5-1.3,0.5H74.4C73.9,51.3,73.5,51.1,73.1,50.8L73.1,50.8z M121,46.9V10.4h-2.9
	c-2.6,0-4.1-1.7-4.1-4.7V5.1c0-3,1.5-4.7,4.3-4.7h8.6c2.8,0,4.3,1.7,4.3,4.7v41.7c0,3-1.5,4.7-4.3,4.7h-1.6
	C122.6,51.5,121,49.9,121,46.9z"/>
</svg>
